<svg id="Layer_1" data-name="Layer 1" xmlns="http://www.w3.org/2000/svg" viewBox="0 0 48.32 36.67"><defs><style>.cls-1{fill:#af8f6e;}</style></defs><path class="cls-1" d="M25.62,33.36l6.06-21.69H46Zm4.59-21.69L24.16,33.33,18.11,11.67ZM10.68,1.85l5.21,8.4H2.41Zm25.56-.43L31.12,9.66,25.5,1.42Zm9.67,8.83H32.42l5.22-8.4Zm-27.4,0L24.16,2l5.64,8.28ZM48.2,11.34l0,0s0,0,0-.05v0l0-.06v0s0,0,0-.06V11a.07.07,0,0,0,0-.05.09.09,0,0,0,0,0v-.05s0,0,0,0l0-.05s0,0,0-.05v0l0,0,0,0a.05.05,0,0,0,0,0l0,0,0,0L38,.21,38,.16l0,0,0,0,0,0-.07,0h0l-.08,0H18.88a.71.71,0,1,0,0,1.42h3.93L17.2,9.66,12.08,1.42h3.58a.71.71,0,0,0,0-1.42H10.51l0,0,0,0h0l0,0,0,0,0,0,0,0h0L.2,10.46v0l0,0,0,0,0,0s0,0,0,0v0s0,0,0,0l0,.05s0,0,0,.05a.09.09,0,0,0,0,0s0,0,0,.05V11a.07.07,0,0,0,0,.05.13.13,0,0,0,0,.06.06.06,0,0,0,0,0s0,0,0,.06v0l0,.05,0,0,0,.05,0,0h0l13.17,14a.71.71,0,1,0,1-1l-12-12.84H16.63l6.06,21.69-6.05-6.45a.7.7,0,0,0-1,0,.71.71,0,0,0,0,1l8,8.57h0l.07.06h0l.08.06h0l.08,0h0l.09,0h.26l.09,0h0l.08,0h0l.08-.06h0l.07-.06h0l23.45-25h0l0,0,0-.05"/></svg>