<svg id="Layer_1" data-name="Layer 1" xmlns="http://www.w3.org/2000/svg" viewBox="0 0 46.56 54.15"><defs><style>.cls-1{fill:#af8f6e;}</style></defs><path class="cls-1" d="M40.87,52.83H5.69a4.37,4.37,0,0,1-4.37-4.37V29.24L22.93,42.48a.66.66,0,0,0,.69,0L45.24,29.24V48.46a4.37,4.37,0,0,1-4.37,4.37M2.09,25l6.31-4,0,11-7-4.31V26.42A1.64,1.64,0,0,1,2.09,25M9.77,4.29a3,3,0,0,1,3-3H27.36V6.2a4.31,4.31,0,0,0,4.32,4.29h4.94V33L23.28,41.14,9.69,32.82Zm18.91-2,7,6.93h-4a3,3,0,0,1-3-3ZM44.46,25h0a1.6,1.6,0,0,1,.77,1.37V27.7l-7.3,4.46V20.86Zm.71-1.12-7.23-4.63V9.83a.63.63,0,0,0-.2-.47L28.48.19A.66.66,0,0,0,28,0H12.77A4.31,4.31,0,0,0,8.45,4.28l0,15.22-7,4.42A2.93,2.93,0,0,0,0,26.42v22a5.69,5.69,0,0,0,5.69,5.69H40.87a5.69,5.69,0,0,0,5.69-5.69v-22a3,3,0,0,0-1.39-2.5"/><path class="cls-1" d="M17.36,8.63h7.32a.66.66,0,0,0,0-1.32H17.36a.66.66,0,1,0,0,1.32"/><path class="cls-1" d="M12.91,7.72a.25.25,0,1,1-.25.25.25.25,0,0,1,.25-.25m0,1.83A1.58,1.58,0,1,0,11.34,8a1.57,1.57,0,0,0,1.57,1.58"/><path class="cls-1" d="M17.36,15.76H33.89a.66.66,0,1,0,0-1.32H17.36a.66.66,0,0,0,0,1.32"/><path class="cls-1" d="M12.91,14.85a.25.25,0,1,1-.25.25.25.25,0,0,1,.25-.25m0,1.82A1.57,1.57,0,0,0,14,14a1.57,1.57,0,1,0-1.11,2.68"/><path class="cls-1" d="M17.36,22.89H33.89a.66.66,0,1,0,0-1.32H17.36a.66.66,0,0,0,0,1.32"/><path class="cls-1" d="M12.91,22a.25.25,0,1,1-.25.25.25.25,0,0,1,.25-.25m0,1.82a1.57,1.57,0,1,0-1.57-1.57,1.57,1.57,0,0,0,1.57,1.57"/><path class="cls-1" d="M17.36,30H33.89a.66.66,0,1,0,0-1.32H17.36a.66.66,0,1,0,0,1.32"/><path class="cls-1" d="M12.91,29.11a.25.25,0,0,1,.18.42.25.25,0,0,1-.43-.17.25.25,0,0,1,.25-.25m0,1.82a1.58,1.58,0,1,0-1.57-1.57,1.57,1.57,0,0,0,1.57,1.57"/></svg>