<svg id="Layer_1" data-name="Layer 1" xmlns="http://www.w3.org/2000/svg" viewBox="0 0 45.65 46.18"><defs><style>.cls-1{fill:#af8f6e;}</style></defs><path class="cls-1" d="M41.8,44.64H12.56a2.3,2.3,0,0,1-2.31-2.31V36.82l.14,0,.37.1c.29.08.58.16.88.22l.43.08.89.13.39,0q.64.06,1.29.06a14.52,14.52,0,0,0,7.25-1.93l6.81,6.8a3.85,3.85,0,1,0,5.43-5.44l-6.8-6.8a14.55,14.55,0,0,0,1.94-7.25,13.94,13.94,0,0,0-.08-1.45A14.63,14.63,0,0,0,14.64,8.24c-.43,0-.86,0-1.29.06l-.4,0a8.89,8.89,0,0,0-.88.13l-.44.08c-.29.06-.57.13-.86.21l-.38.1-.15,0V3.85a2.31,2.31,0,0,1,2.31-2.31H34.88V8.47a2.31,2.31,0,0,0,2.31,2.31h6.92V42.33a2.3,2.3,0,0,1-2.31,2.31M23.58,34.43l.31-.25a12.58,12.58,0,0,0,1.09-1,14.39,14.39,0,0,0,1-1.09l.24-.31.29-.36L33.05,38a2.28,2.28,0,0,1,0,3.25,2.34,2.34,0,0,1-3.26,0l-6.57-6.56.36-.28m-22-11.56A13.06,13.06,0,0,1,14.64,9.78a11.2,11.2,0,0,1,1.3.07A13,13,0,0,1,27.56,20.91a11.69,11.69,0,0,1,.16,2,13,13,0,0,1-2,7,13.08,13.08,0,0,1-24.16-7M43,9.24H37.19a.77.77,0,0,1-.77-.77V2.63Zm2.62.72a.65.65,0,0,0,0-.2s0,0,0-.07a.73.73,0,0,0-.16-.23L36.19.23A.73.73,0,0,0,36,.07l-.07,0a.45.45,0,0,0-.2,0H12.56A3.85,3.85,0,0,0,8.71,3.85V9.51a14.59,14.59,0,0,0,0,26.71v6.11a3.85,3.85,0,0,0,3.85,3.85H41.8a3.85,3.85,0,0,0,3.85-3.85V10a.43.43,0,0,0,0,0"/><path class="cls-1" d="M31.8,5.39A.77.77,0,0,0,31,4.62H14.09a.77.77,0,1,0,0,1.54H31a.78.78,0,0,0,.77-.77"/><path class="cls-1" d="M40.26,18.47H31A.77.77,0,0,0,31,20h9.23a.77.77,0,0,0,0-1.54"/><path class="cls-1" d="M40.26,23.09H31a.77.77,0,0,0,0,1.54h9.23a.77.77,0,0,0,0-1.54"/><path class="cls-1" d="M41,28.48a.76.76,0,0,0-.77-.77h-10a.77.77,0,1,0,0,1.54h10a.77.77,0,0,0,.77-.77"/><path class="cls-1" d="M41,33.1a.76.76,0,0,0-.77-.77H33.34a.77.77,0,1,0,0,1.54h6.92A.77.77,0,0,0,41,33.1"/><path class="cls-1" d="M31.8,10A.77.77,0,0,0,31,9.24H24.87a.77.77,0,1,0,0,1.54H31A.78.78,0,0,0,31.8,10"/><path class="cls-1" d="M41,14.62a.77.77,0,0,0-.77-.77H28.72a.77.77,0,1,0,0,1.54H40.26a.76.76,0,0,0,.77-.77"/><path class="cls-1" d="M11.78,19.24h5.39a.77.77,0,0,0,0-1.54H11.78a.77.77,0,0,0,0,1.54"/><path class="cls-1" d="M21,23.09a.77.77,0,0,0-.77-.77H8.71a.77.77,0,0,0,0,1.54H20.25a.76.76,0,0,0,.77-.77"/><path class="cls-1" d="M17.17,26.94H11.78a.77.77,0,0,0,0,1.54h5.39a.77.77,0,0,0,0-1.54"/><path class="cls-1" d="M9.84,31.65a10.23,10.23,0,0,1-2.28-1.71,10.84,10.84,0,0,1-1.25-1.53c-.18-.27-.35-.55-.5-.83a10,10,0,1,1,17.63,0h0a10,10,0,0,1-13.6,4ZM20.12,33a11.28,11.28,0,0,0,4.49-4.36,3.14,3.14,0,0,0,.18-.31l.09-.17c.11-.23.23-.45.33-.68s.18-.45.26-.68a1.54,1.54,0,0,1,.08-.19A11.56,11.56,0,1,0,20.12,33Z"/><path class="cls-1" d="M41.8,37a.77.77,0,0,0-.77.77v3.07a.76.76,0,0,1-.77.77H37.18a.77.77,0,0,0,0,1.54h3.08a2.3,2.3,0,0,0,2.31-2.31V37.72A.76.76,0,0,0,41.8,37"/></svg>